Coordinates
version=1
nRows=18
nColumns=38
inDegrees=no

Units are S.I. units (second, meters, Newtons, ...)
If the header above contains a line with 'inDegrees', this indicates whether rotational values are in degrees (yes) or radians (no).

endheader
time	pelvis_tilt	pelvis_list	pelvis_rotation	pelvis_tx	pelvis_ty	pelvis_tz	hip_flexion_r	hip_adduction_r	hip_rotation_r	knee_angle_r	ankle_angle_r	subtalar_angle_r	mtp_angle_r	hip_flexion_l	hip_adduction_l	hip_rotation_l	knee_angle_l	ankle_angle_l	subtalar_angle_l	mtp_angle_l	lumbar_extension	lumbar_bending	lumbar_rotation	arm_flex_r	arm_add_r	arm_rot_r	elbow_flex_r	pro_sup_r	wrist_flex_r	wrist_dev_r	arm_flex_l	arm_add_l	arm_rot_l	elbow_flex_l	pro_sup_l	wrist_flex_l	wrist_dev_l
224.98000000	-0.04596021	0.19308738	-0.04268213	-0.14294670	0.89879244	-0.01971052	0.09280894	-0.27826608	-0.04841042	1.01395516	-0.40872526	0.00000000	0.00000000	0.43699290	0.21798214	-0.18739859	0.47230768	0.09047506	0.00000000	0.00000000	-0.09485489	-0.24008008	0.22195903	-0.15052588	-0.18620606	-0.34892129	1.15841951	1.29408605	0.00000000	0.00000000	-0.12263536	-0.20101269	0.05870131	0.23215023	1.57080000	0.00000000	0.00000000
224.99000000	-0.04662418	0.19924047	-0.04914194	-0.14382865	0.90004783	-0.02069187	0.13258689	-0.28759806	-0.03608284	1.06033098	-0.37714722	0.00000000	0.00000000	0.41907220	0.22536624	-0.19555714	0.46363364	0.10282685	0.00000000	0.00000000	-0.09448056	-0.24619986	0.22254577	-0.15669076	-0.18361431	-0.33346643	1.13442974	1.29345832	0.00000000	0.00000000	-0.11265466	-0.20078407	0.05638842	0.23922636	1.57080000	0.00000000	0.00000000
225.00000000	-0.04801142	0.20275015	-0.05653628	-0.14496070	0.90122076	-0.02139602	0.17433154	-0.29226537	-0.02295595	1.10185729	-0.33124722	0.00000000	0.00000000	0.40290121	0.22993138	-0.20186170	0.45651108	0.11526325	0.00000000	0.00000000	-0.09371405	-0.24943466	0.22333436	-0.16080903	-0.18240719	-0.31533431	1.10618280	1.29328420	0.00000000	0.00000000	-0.10206781	-0.19998142	0.05012323	0.24654013	1.57080000	0.00000000	0.00000000
225.01000000	-0.04987764	0.20377824	-0.06425824	-0.14629067	0.90236316	-0.02189420	0.21717810	-0.29220097	-0.00929168	1.13759683	-0.28141430	0.00000000	0.00000000	0.38771806	0.23197790	-0.20648322	0.45023767	0.12755781	0.00000000	0.00000000	-0.09280900	-0.24987194	0.22366332	-0.16294318	-0.18223346	-0.29499120	1.07378352	1.29402850	0.00000000	0.00000000	-0.09095517	-0.19865450	0.03963399	0.25396749	1.57080000	0.00000000	0.00000000
225.02000000	-0.05208843	0.20299917	-0.07176583	-0.14775876	0.90350566	-0.02227288	0.26022179	-0.28828153	0.00408235	1.16705102	-0.23389800	0.00000000	0.00000000	0.37272711	0.23228946	-0.21012859	0.44366789	0.13928520	0.00000000	0.00000000	-0.09186994	-0.24817657	0.22298748	-0.16331871	-0.18263473	-0.27318265	1.03759398	1.29704864	0.00000000	0.00000000	-0.07951702	-0.19704632	0.02638381	0.26176993	1.57080000	0.00000000	0.00000000
225.03000000	-0.05452937	0.20108345	-0.07847806	-0.14930446	0.90467153	-0.02261467	0.30239054	-0.28174243	0.01573342	1.18996966	-0.19087084	0.00000000	0.00000000	0.35730637	0.23168899	-0.21324512	0.43592973	0.15003876	0.00000000	0.00000000	-0.09103669	-0.24504558	0.22085323	-0.16221865	-0.18309330	-0.25097171	0.99807477	1.30384076	0.00000000	0.00000000	-0.06798111	-0.19548701	0.01321519	0.27040358	1.57080000	0.00000000	0.00000000
225.04000000	-0.05695160	0.19830662	-0.08382387	-0.15087343	0.90589661	-0.02298277	0.34246960	-0.27359239	0.02411600	1.20621168	-0.15249369	0.00000000	0.00000000	0.34095271	0.23063893	-0.21566177	0.42675982	0.15959546	0.00000000	0.00000000	-0.09067909	-0.24077463	0.21690172	-0.15988045	-0.18316534	-0.22950755	0.95563289	1.31488538	0.00000000	0.00000000	-0.05647581	-0.19419585	0.00237274	0.28028069	1.57080000	0.00000000	0.00000000
225.05000000	-0.05895661	0.19457635	-0.08743880	-0.15242795	0.90722193	-0.02341513	0.37935354	-0.26442863	0.02824797	1.21569525	-0.11850872	0.00000000	0.00000000	0.32324290	0.22919644	-0.21684188	0.41639092	0.16797482	0.00000000	0.00000000	-0.09135197	-0.23527147	0.21098956	-0.15653069	-0.18261258	-0.20973284	0.91070181	1.32939938	0.00000000	0.00000000	-0.04495007	-0.19320138	-0.00580499	0.29166407	1.57080000	0.00000000	0.00000000
225.06000000	-0.06014461	0.18974856	-0.08926687	-0.15395424	0.90866697	-0.02393043	0.41235096	-0.25466715	0.02793812	1.21846488	-0.08841887	0.00000000	0.00000000	0.30392906	0.22727097	-0.21632869	0.40526000	0.17537153	0.00000000	0.00000000	-0.09355074	-0.22839036	0.20325797	-0.15245898	-0.18141140	-0.19227688	0.86387688	1.34615944	0.00000000	0.00000000	-0.03322275	-0.19244460	-0.01221600	0.30468422	1.57080000	0.00000000	0.00000000
225.07000000	-0.06026201	0.18387545	-0.08945924	-0.15545523	0.91021447	-0.02453602	0.44126935	-0.24481215	0.02346125	1.21474110	-0.06114182	0.00000000	0.00000000	0.28301108	0.22486706	-0.21393709	0.39379850	0.18202668	0.00000000	0.00000000	-0.09750872	-0.22019464	0.19402805	-0.14799986	-0.17961962	-0.17758039	0.81587383	1.36423027	0.00000000	0.00000000	-0.02112163	-0.19192188	-0.01764650	0.31936044	1.57080000	0.00000000	0.00000000
225.08000000	-0.05923020	0.17722857	-0.08821196	-0.15693380	0.91181731	-0.02522801	0.46624696	-0.23546836	0.01518070	1.20483152	-0.03540512	0.00000000	0.00000000	0.26066743	0.22214272	-0.20966131	0.38235316	0.18813143	0.00000000	0.00000000	-0.10317265	-0.21098199	0.18363364	-0.14345980	-0.17722317	-0.16608556	0.76736603	1.38293185	0.00000000	0.00000000	-0.00857483	-0.19174688	-0.02217282	0.33560025	1.57080000	0.00000000	0.00000000
225.09000000	-0.05709480	0.17017943	-0.08567183	-0.15838249	0.91341507	-0.02599008	0.48752284	-0.22716438	0.00345454	1.18899568	-0.01084904	0.00000000	0.00000000	0.23713799	0.21932415	-0.20354801	0.37119751	0.19382752	0.00000000	0.00000000	-0.11030031	-0.20116405	0.17232450	-0.13908795	-0.17409788	-0.15831644	0.71888012	1.40159741	0.00000000	0.00000000	0.00440617	-0.19211677	-0.02533869	0.35323757	1.57080000	0.00000000	0.00000000
225.10000000	-0.05399170	0.16305790	-0.08191343	-0.15978649	0.91494656	-0.02679950	0.50533614	-0.22021010	-0.01129927	1.16742971	0.01155331	0.00000000	0.00000000	0.21269685	0.21656345	-0.19571672	0.36058696	0.19923997	0.00000000	0.00000000	-0.11855168	-0.19111698	0.16026569	-0.13509935	-0.17008537	-0.15484453	0.67080318	1.41960807	0.00000000	0.00000000	0.01779434	-0.19323215	-0.02656376	0.37210373	1.57080000	0.00000000	0.00000000
225.11000000	-0.05016582	0.15607008	-0.07696675	-0.16113518	0.91635286	-0.02763415	0.51999610	-0.21466884	-0.02857181	1.14036576	0.03043467	0.00000000	0.00000000	0.18770892	0.21384357	-0.18646204	0.35075925	0.20445273	0.00000000	0.00000000	-0.12750594	-0.18108464	0.14759142	-0.13168532	-0.16508297	-0.15621529	0.62343081	1.43653508	0.00000000	0.00000000	0.03158736	-0.19523233	-0.02551052	0.39203787	1.57080000	0.00000000	0.00000000
225.12000000	-0.04597886	0.14930793	-0.07087686	-0.16243166	0.91757610	-0.02847231	0.53197138	-0.21039483	-0.04777929	1.10813689	0.04519051	0.00000000	0.00000000	0.16263645	0.21101577	-0.17625195	0.34182759	0.20950879	0.00000000	0.00000000	-0.13666701	-0.17118349	0.13443850	-0.12897678	-0.15908705	-0.16283125	0.57701677	1.45217510	0.00000000	0.00000000	0.04579862	-0.19816793	-0.02228475	0.41282066	1.57080000	0.00000000	0.00000000
225.13000000	-0.04184093	0.14281854	-0.06375762	-0.16369290	0.91856179	-0.02928879	0.54184138	-0.20711010	-0.06828379	1.07111452	0.05619617	0.00000000	0.00000000	0.13793792	0.20793592	-0.16558895	0.33368573	0.21449351	0.00000000	0.00000000	-0.14554235	-0.16148519	0.12094057	-0.12703046	-0.15220397	-0.17477622	0.53187792	1.46644886	0.00000000	0.00000000	0.06043281	-0.20202119	-0.01729378	0.43415060	1.57080000	0.00000000	0.00000000
225.14000000	-0.03810890	0.13666625	-0.05580806	-0.16494091	0.91926555	-0.03005490	0.55015205	-0.20450711	-0.08943205	1.02957582	0.06429316	0.00000000	0.00000000	0.11398111	0.20456895	-0.15487345	0.32611152	0.21957312	0.00000000	0.00000000	-0.15374850	-0.15209565	0.10722751	-0.12588772	-0.14464031	-0.19169877	0.48851716	1.47921763	0.00000000	0.00000000	0.07548273	-0.20677469	-0.01090105	0.45569784	1.57080000	0.00000000	0.00000000
225.15000000	-0.03503928	0.13094239	-0.04728699	-0.16619182	0.91965775	-0.03074211	0.55732523	-0.20231211	-0.11061276	0.98364507	0.07019679	0.00000000	0.00000000	0.09108402	0.20097749	-0.14436981	0.31904855	0.22491727	0.00000000	0.00000000	-0.16103610	-0.14316988	0.09344261	-0.12562440	-0.13665205	-0.21293548	0.44759345	1.49022133	0.00000000	0.00000000	0.09095273	-0.21246925	-0.00324173	0.47713539	1.57080000	0.00000000	0.00000000
